<?xml version="1.0" encoding="utf-8"?>
<svg version="1.1" xmlns="http://www.w3.org/2000/svg" xmlns:xlink="http://www.w3.org/1999/xlink" x="0px" y="0px"
	 viewBox="0 0 68 20" style="enable-background:new 0 0 68 20;" xml:space="preserve">
<g fill="#2d2829">
	<path d="M11.5,2.8c0.6,0.3,1.3,0.6,1.9,1.1c0.2,0.1,0.3,0.2,0.4,0.2c0.3,0,0.5-0.5,0.6-1.4h0.5c-0.1,1-0.1,2.9-0.1,5.6h-0.5
		c-0.1-1.1-0.3-2-0.6-2.6c-0.2-0.6-0.6-1.1-1.2-1.6c-0.4-0.4-0.8-0.6-1.3-0.8C10.7,3.1,10.2,3,9.7,3C8.1,3,7,3.7,6.2,5.2
		c-0.8,1.5-1.1,3.4-1.1,5.6c0,2.2,0.4,4.1,1.2,5.6C7,18,8.2,18.7,9.8,18.7c0.5,0,1-0.1,1.6-0.3c0.5-0.2,0.9-0.5,1.3-0.8
		c0.6-0.4,1-1,1.2-1.6c0.2-0.6,0.4-1.6,0.5-2.8h0.5c0,2.8,0,4.7,0.1,5.8h-0.5c0-0.5-0.1-0.8-0.2-1c-0.1-0.2-0.2-0.3-0.4-0.3
		c-0.1,0-0.3,0.1-0.5,0.2c-0.7,0.5-1.3,0.9-2,1.1s-1.4,0.4-2.3,0.4c-1.6,0-3-0.3-4.3-1c-1.2-0.7-2.2-1.6-2.8-2.9S1,12.7,1,11
		c0-1.7,0.3-3.2,1-4.5s1.7-2.3,2.9-3c1.2-0.7,2.6-1.1,4.2-1.1C10.1,2.4,10.8,2.5,11.5,2.8z"/>
	<path d="M18.8,18.4c-0.5-0.5-0.7-1.2-0.7-2c0-0.7,0.2-1.3,0.5-1.7c0.4-0.5,0.8-0.8,1.3-1c0.5-0.2,1.2-0.5,2-0.8
		c0.8-0.3,1.5-0.6,1.9-0.8c0.4-0.2,0.6-0.6,0.6-1V9.3c0-0.6-0.1-1.1-0.4-1.5c-0.3-0.4-0.8-0.5-1.4-0.5c-0.7,0-1.3,0.2-1.7,0.6
		c0.4,0.2,0.8,0.4,1,0.7c0.2,0.3,0.4,0.7,0.4,1.1c0,0.5-0.2,0.9-0.5,1.2c-0.4,0.3-0.8,0.5-1.3,0.5c-0.5,0-1-0.2-1.2-0.5
		c-0.3-0.3-0.4-0.8-0.4-1.3c0-0.4,0.1-0.8,0.3-1.1c0.2-0.3,0.5-0.6,1-0.8c0.4-0.2,0.9-0.4,1.5-0.6c0.6-0.1,1.3-0.2,2-0.2
		c0.8,0,1.4,0.1,2,0.2c0.6,0.2,1,0.4,1.4,0.8c0.3,0.3,0.6,0.8,0.7,1.2s0.2,1.2,0.2,2v6.3c0,0.4,0,0.6,0.1,0.8
		c0.1,0.2,0.2,0.2,0.4,0.2c0.2,0,0.5-0.1,0.8-0.4l0.2,0.4c-0.7,0.6-1.5,0.9-2.5,0.9c-0.8,0-1.4-0.2-1.8-0.5
		c-0.3-0.3-0.5-0.8-0.5-1.4c-0.8,1.2-1.9,1.9-3.4,1.9C20,19.1,19.2,18.9,18.8,18.4z M24.3,16.7V12c-0.2,0.3-0.6,0.6-1.2,1
		c-0.6,0.4-1.1,0.8-1.4,1.2c-0.3,0.4-0.5,0.9-0.5,1.7c0,0.6,0.1,1.1,0.4,1.4c0.3,0.3,0.6,0.4,1,0.4C23.3,17.7,23.8,17.4,24.3,16.7z"
		/>
	<path d="M43.3,18.1c0.2,0.2,0.4,0.3,0.6,0.4V19c-1.2-0.1-2-0.1-2.4-0.1c-0.5,0-1.5,0-3,0.1v-0.5c0.2,0,0.4,0,0.5-0.1
		c0.1-0.1,0.2-0.2,0.2-0.3c0-0.1,0-0.2-0.1-0.3l-2.3-4.1c-0.2-0.3-0.3-0.4-0.5-0.5c-0.2-0.1-0.4-0.2-0.6-0.2v4
		c0,0.6,0.1,1.1,0.3,1.3c0.2,0.2,0.6,0.4,1.1,0.4V19c-1.5-0.1-2.5-0.1-3-0.1c-0.5,0-1.6,0-3.2,0.1v-0.5c0.5,0,0.9-0.1,1.1-0.4
		c0.2-0.2,0.3-0.7,0.3-1.3V3.7c0-0.7-0.1-1.2-0.3-1.5c-0.2-0.3-0.6-0.5-1.1-0.5V1.2c0.5,0,1,0.1,1.4,0.1c1.3,0,2.5-0.1,3.4-0.3v11.5
		c0.3,0,0.6-0.1,0.8-0.2c0.2-0.1,0.4-0.2,0.6-0.4l1.7-1.7c0.5-0.5,0.8-1,0.8-1.4c0-0.4-0.2-0.6-0.5-0.8s-0.8-0.3-1.3-0.4V7.1
		c0.8,0,1.7,0.1,2.7,0.1c1.3,0,2.2,0,2.7-0.1v0.5c-0.9,0.2-1.9,0.8-2.9,1.8l-1.5,1.5l3.9,6.5C42.9,17.7,43.1,17.9,43.3,18.1z"/>
	<path d="M54.9,15.6l0.4,0.1c-0.3,1-0.9,1.8-1.6,2.5c-0.8,0.7-1.8,1-3,1c-1.6,0-2.9-0.5-3.9-1.6c-1-1-1.4-2.6-1.4-4.6
		c0-2.1,0.5-3.7,1.5-4.7s2.4-1.6,4.1-1.6c2.9,0,4.3,1.7,4.3,5.1h-6.5c0,0.2,0,0.6,0,1.1c0,1,0.1,1.9,0.4,2.5
		c0.3,0.7,0.7,1.2,1.1,1.5s0.9,0.5,1.5,0.5C53.1,17.4,54.1,16.8,54.9,15.6z M49.5,8.3c-0.4,0.7-0.6,1.7-0.7,3.2h3.6
		c0-1.2-0.1-2.2-0.4-3c-0.3-0.8-0.7-1.2-1.2-1.2C50.3,7.2,49.8,7.6,49.5,8.3z"/>
	<path d="M64,7c0.5,0.1,0.9,0.3,1.1,0.5c0.2,0.1,0.3,0.2,0.4,0.2c0.1,0,0.3-0.1,0.4-0.2C66,7.3,66,7.1,66.1,6.8h0.5
		c-0.1,0.8-0.1,2.1-0.1,4H66c-0.1-1-0.4-1.9-0.9-2.5c-0.5-0.7-1.1-1-2-1c-0.5,0-0.8,0.1-1.1,0.4s-0.4,0.6-0.4,1.1
		c0,0.5,0.2,1,0.5,1.3c0.4,0.4,0.9,0.8,1.7,1.4l0.7,0.5c0.9,0.7,1.6,1.3,2.1,1.9c0.4,0.6,0.7,1.2,0.7,2.1c0,0.7-0.2,1.3-0.6,1.8
		c-0.4,0.5-0.9,0.9-1.6,1.2c-0.7,0.3-1.4,0.4-2.2,0.4c-0.8,0-1.6-0.2-2.2-0.5c-0.5-0.2-0.8-0.4-1.1-0.5c-0.2,0-0.3,0-0.4,0.1
		s-0.2,0.4-0.3,0.7h-0.5c0.1-0.9,0.1-2.4,0.1-4.6h0.5c0.3,2.8,1.3,4.2,3.1,4.2c0.4,0,0.8-0.1,1.1-0.4c0.3-0.3,0.5-0.7,0.5-1.2
		c0-0.4-0.1-0.8-0.3-1.2c-0.2-0.3-0.4-0.6-0.7-0.9s-0.7-0.6-1.3-1.1c-0.7-0.6-1.2-1-1.6-1.3c-0.4-0.3-0.7-0.7-0.9-1.2
		s-0.4-1-0.4-1.5c0-1,0.4-1.8,1.1-2.3s1.7-0.9,2.8-0.9C62.9,6.8,63.5,6.8,64,7z"/>
</g>
</svg>
